<mxfile host="app.diagrams.net" modified="2021-09-13T07:24:35.510Z" agent="5.0 (Windows NT 10.0; WOW64) AppleWebKit/537.36 (KHTML, like Gecko) Chrome/93.0.4577.63 Safari/537.36" etag="HIkN6e8VpI4Q3UPT16ed" version="15.1.4" type="github">
  <diagram id="R2lEEEUBdFMjLlhIrx00" name="Page-1">
    <mxGraphModel dx="1888" dy="547" grid="1" gridSize="10" guides="1" tooltips="1" connect="1" arrows="1" fold="1" page="1" pageScale="1" pageWidth="850" pageHeight="1100" math="0" shadow="0" extFonts="Permanent Marker^https://fonts.googleapis.com/css?family=Permanent+Marker">
      <root>
        <mxCell id="0" />
        <mxCell id="1" parent="0" />
        <mxCell id="6eI2uXCd-9yqIa6pnTaD-1" value="Ward" style="whiteSpace=wrap;html=1;align=center;" parent="1" vertex="1">
          <mxGeometry x="140" y="650" width="100" height="40" as="geometry" />
        </mxCell>
        <mxCell id="6eI2uXCd-9yqIa6pnTaD-2" value="Patient" style="whiteSpace=wrap;html=1;align=center;" parent="1" vertex="1">
          <mxGeometry x="525" y="650" width="100" height="40" as="geometry" />
        </mxCell>
        <mxCell id="6eI2uXCd-9yqIa6pnTaD-3" value="Pno" style="ellipse;whiteSpace=wrap;html=1;align=center;fontStyle=4;" parent="1" vertex="1">
          <mxGeometry x="470" y="570" width="100" height="40" as="geometry" />
        </mxCell>
        <mxCell id="6eI2uXCd-9yqIa6pnTaD-4" value="Wno" style="ellipse;whiteSpace=wrap;html=1;align=center;fontStyle=4;" parent="1" vertex="1">
          <mxGeometry x="90" y="570" width="100" height="40" as="geometry" />
        </mxCell>
        <mxCell id="6eI2uXCd-9yqIa6pnTaD-5" value="" style="endArrow=none;html=1;entryX=0.5;entryY=1;entryDx=0;entryDy=0;exitX=0.5;exitY=0;exitDx=0;exitDy=0;" parent="1" source="6eI2uXCd-9yqIa6pnTaD-1" target="6eI2uXCd-9yqIa6pnTaD-4" edge="1">
          <mxGeometry width="50" height="50" relative="1" as="geometry">
            <mxPoint x="380" y="820" as="sourcePoint" />
            <mxPoint x="430" y="770" as="targetPoint" />
          </mxGeometry>
        </mxCell>
        <mxCell id="6eI2uXCd-9yqIa6pnTaD-6" value="" style="endArrow=none;html=1;exitX=0.5;exitY=0;exitDx=0;exitDy=0;entryX=0.5;entryY=1;entryDx=0;entryDy=0;" parent="1" source="6eI2uXCd-9yqIa6pnTaD-2" target="6eI2uXCd-9yqIa6pnTaD-3" edge="1">
          <mxGeometry width="50" height="50" relative="1" as="geometry">
            <mxPoint x="430" y="660" as="sourcePoint" />
            <mxPoint x="475" y="610" as="targetPoint" />
          </mxGeometry>
        </mxCell>
        <mxCell id="6eI2uXCd-9yqIa6pnTaD-11" value="Nurse" style="shape=rhombus;perimeter=rhombusPerimeter;whiteSpace=wrap;html=1;align=center;" parent="1" vertex="1">
          <mxGeometry x="320" y="640" width="120" height="60" as="geometry" />
        </mxCell>
        <mxCell id="6eI2uXCd-9yqIa6pnTaD-12" value="" style="endArrow=none;html=1;entryX=0;entryY=0.5;entryDx=0;entryDy=0;exitX=1;exitY=0.5;exitDx=0;exitDy=0;" parent="1" source="6eI2uXCd-9yqIa6pnTaD-11" target="6eI2uXCd-9yqIa6pnTaD-2" edge="1">
          <mxGeometry width="50" height="50" relative="1" as="geometry">
            <mxPoint x="380" y="820" as="sourcePoint" />
            <mxPoint x="430" y="770" as="targetPoint" />
          </mxGeometry>
        </mxCell>
        <mxCell id="6eI2uXCd-9yqIa6pnTaD-13" value="" style="endArrow=none;html=1;entryX=1;entryY=0.5;entryDx=0;entryDy=0;exitX=0;exitY=0.5;exitDx=0;exitDy=0;" parent="1" source="6eI2uXCd-9yqIa6pnTaD-11" target="6eI2uXCd-9yqIa6pnTaD-1" edge="1">
          <mxGeometry width="50" height="50" relative="1" as="geometry">
            <mxPoint x="380" y="820" as="sourcePoint" />
            <mxPoint x="430" y="770" as="targetPoint" />
          </mxGeometry>
        </mxCell>
        <mxCell id="6eI2uXCd-9yqIa6pnTaD-17" value="" style="endArrow=none;html=1;entryX=0.5;entryY=1;entryDx=0;entryDy=0;" parent="1" target="6eI2uXCd-9yqIa6pnTaD-2" edge="1">
          <mxGeometry width="50" height="50" relative="1" as="geometry">
            <mxPoint x="575" y="750" as="sourcePoint" />
            <mxPoint x="430" y="770" as="targetPoint" />
          </mxGeometry>
        </mxCell>
        <mxCell id="6eI2uXCd-9yqIa6pnTaD-18" value="1" style="text;html=1;strokeColor=none;fillColor=none;align=center;verticalAlign=middle;whiteSpace=wrap;rounded=0;" parent="1" vertex="1">
          <mxGeometry x="250" y="630" width="40" height="30" as="geometry" />
        </mxCell>
        <mxCell id="6eI2uXCd-9yqIa6pnTaD-19" value="M" style="text;html=1;strokeColor=none;fillColor=none;align=center;verticalAlign=middle;whiteSpace=wrap;rounded=0;" parent="1" vertex="1">
          <mxGeometry x="470" y="630" width="40" height="30" as="geometry" />
        </mxCell>
        <mxCell id="6eI2uXCd-9yqIa6pnTaD-21" value="Doctor" style="whiteSpace=wrap;html=1;align=center;" parent="1" vertex="1">
          <mxGeometry x="525" y="890" width="100" height="40" as="geometry" />
        </mxCell>
        <mxCell id="6eI2uXCd-9yqIa6pnTaD-22" value="Disease" style="shape=rhombus;perimeter=rhombusPerimeter;whiteSpace=wrap;html=1;align=center;" parent="1" vertex="1">
          <mxGeometry x="515" y="750" width="120" height="60" as="geometry" />
        </mxCell>
        <mxCell id="6eI2uXCd-9yqIa6pnTaD-23" value="" style="endArrow=none;html=1;entryX=0.5;entryY=1;entryDx=0;entryDy=0;exitX=0.5;exitY=0;exitDx=0;exitDy=0;" parent="1" source="6eI2uXCd-9yqIa6pnTaD-21" target="6eI2uXCd-9yqIa6pnTaD-22" edge="1">
          <mxGeometry width="50" height="50" relative="1" as="geometry">
            <mxPoint x="380" y="820" as="sourcePoint" />
            <mxPoint x="430" y="770" as="targetPoint" />
          </mxGeometry>
        </mxCell>
        <mxCell id="6eI2uXCd-9yqIa6pnTaD-24" value="1" style="text;html=1;strokeColor=none;fillColor=none;align=center;verticalAlign=middle;whiteSpace=wrap;rounded=0;" parent="1" vertex="1">
          <mxGeometry x="595" y="700" width="40" height="30" as="geometry" />
        </mxCell>
        <mxCell id="6eI2uXCd-9yqIa6pnTaD-26" value="M" style="text;html=1;strokeColor=none;fillColor=none;align=center;verticalAlign=middle;whiteSpace=wrap;rounded=0;" parent="1" vertex="1">
          <mxGeometry x="585" y="850" width="40" height="30" as="geometry" />
        </mxCell>
        <mxCell id="VQ4ZSW6SBuYJ-sOS3bC8-1" value="Musician" style="whiteSpace=wrap;html=1;align=center;" vertex="1" parent="1">
          <mxGeometry x="100" y="90" width="100" height="40" as="geometry" />
        </mxCell>
        <mxCell id="VQ4ZSW6SBuYJ-sOS3bC8-2" value="SSN" style="ellipse;whiteSpace=wrap;html=1;align=center;fontStyle=4;" vertex="1" parent="1">
          <mxGeometry x="20" width="100" height="40" as="geometry" />
        </mxCell>
        <mxCell id="VQ4ZSW6SBuYJ-sOS3bC8-5" value="Name" style="ellipse;whiteSpace=wrap;html=1;align=center;" vertex="1" parent="1">
          <mxGeometry x="150" width="100" height="40" as="geometry" />
        </mxCell>
        <mxCell id="VQ4ZSW6SBuYJ-sOS3bC8-6" value="Address" style="ellipse;whiteSpace=wrap;html=1;align=center;" vertex="1" parent="1">
          <mxGeometry x="-60" y="90" width="100" height="40" as="geometry" />
        </mxCell>
        <mxCell id="VQ4ZSW6SBuYJ-sOS3bC8-7" value="" style="endArrow=none;html=1;exitX=1;exitY=0.5;exitDx=0;exitDy=0;entryX=0;entryY=0.5;entryDx=0;entryDy=0;" edge="1" parent="1" source="VQ4ZSW6SBuYJ-sOS3bC8-6" target="VQ4ZSW6SBuYJ-sOS3bC8-1">
          <mxGeometry width="50" height="50" relative="1" as="geometry">
            <mxPoint x="370" y="140" as="sourcePoint" />
            <mxPoint x="420" y="90" as="targetPoint" />
          </mxGeometry>
        </mxCell>
        <mxCell id="VQ4ZSW6SBuYJ-sOS3bC8-8" value="" style="endArrow=none;html=1;entryX=0.5;entryY=1;entryDx=0;entryDy=0;" edge="1" parent="1" source="VQ4ZSW6SBuYJ-sOS3bC8-1" target="VQ4ZSW6SBuYJ-sOS3bC8-2">
          <mxGeometry width="50" height="50" relative="1" as="geometry">
            <mxPoint x="370" y="140" as="sourcePoint" />
            <mxPoint x="420" y="90" as="targetPoint" />
          </mxGeometry>
        </mxCell>
        <mxCell id="VQ4ZSW6SBuYJ-sOS3bC8-9" value="" style="endArrow=none;html=1;entryX=0.5;entryY=1;entryDx=0;entryDy=0;exitX=0.75;exitY=0;exitDx=0;exitDy=0;" edge="1" parent="1" source="VQ4ZSW6SBuYJ-sOS3bC8-1" target="VQ4ZSW6SBuYJ-sOS3bC8-5">
          <mxGeometry width="50" height="50" relative="1" as="geometry">
            <mxPoint x="370" y="140" as="sourcePoint" />
            <mxPoint x="420" y="90" as="targetPoint" />
          </mxGeometry>
        </mxCell>
        <mxCell id="VQ4ZSW6SBuYJ-sOS3bC8-11" value="" style="endArrow=none;html=1;exitX=1;exitY=0;exitDx=0;exitDy=0;entryX=0;entryY=1;entryDx=0;entryDy=0;" edge="1" parent="1" source="VQ4ZSW6SBuYJ-sOS3bC8-18" target="VQ4ZSW6SBuYJ-sOS3bC8-1">
          <mxGeometry width="50" height="50" relative="1" as="geometry">
            <mxPoint x="370" y="140" as="sourcePoint" />
            <mxPoint x="420" y="90" as="targetPoint" />
          </mxGeometry>
        </mxCell>
        <mxCell id="VQ4ZSW6SBuYJ-sOS3bC8-12" value="Instrument" style="whiteSpace=wrap;html=1;align=center;" vertex="1" parent="1">
          <mxGeometry x="525" y="90" width="100" height="40" as="geometry" />
        </mxCell>
        <mxCell id="VQ4ZSW6SBuYJ-sOS3bC8-15" value="" style="endArrow=none;html=1;entryX=0.5;entryY=1;entryDx=0;entryDy=0;exitX=0.5;exitY=0;exitDx=0;exitDy=0;" edge="1" parent="1" source="VQ4ZSW6SBuYJ-sOS3bC8-12">
          <mxGeometry width="50" height="50" relative="1" as="geometry">
            <mxPoint x="360" y="100" as="sourcePoint" />
            <mxPoint x="525" y="40" as="targetPoint" />
          </mxGeometry>
        </mxCell>
        <mxCell id="VQ4ZSW6SBuYJ-sOS3bC8-16" value="Name" style="ellipse;whiteSpace=wrap;html=1;align=center;fontStyle=4;" vertex="1" parent="1">
          <mxGeometry x="595" width="100" height="40" as="geometry" />
        </mxCell>
        <mxCell id="VQ4ZSW6SBuYJ-sOS3bC8-17" value="" style="endArrow=none;html=1;entryX=0.75;entryY=0;entryDx=0;entryDy=0;exitX=0.5;exitY=1;exitDx=0;exitDy=0;" edge="1" parent="1" source="VQ4ZSW6SBuYJ-sOS3bC8-16" target="VQ4ZSW6SBuYJ-sOS3bC8-12">
          <mxGeometry width="50" height="50" relative="1" as="geometry">
            <mxPoint x="660.0028571428571" y="80" as="sourcePoint" />
            <mxPoint x="602.86" y="30" as="targetPoint" />
          </mxGeometry>
        </mxCell>
        <mxCell id="VQ4ZSW6SBuYJ-sOS3bC8-18" value="Phone number" style="ellipse;shape=doubleEllipse;margin=3;whiteSpace=wrap;html=1;align=center;" vertex="1" parent="1">
          <mxGeometry x="-50" y="160" width="100" height="40" as="geometry" />
        </mxCell>
        <mxCell id="VQ4ZSW6SBuYJ-sOS3bC8-19" value="Musical key" style="ellipse;shape=doubleEllipse;margin=3;whiteSpace=wrap;html=1;align=center;" vertex="1" parent="1">
          <mxGeometry x="470" width="100" height="40" as="geometry" />
        </mxCell>
        <mxCell id="VQ4ZSW6SBuYJ-sOS3bC8-21" value="Album" style="whiteSpace=wrap;html=1;align=center;" vertex="1" parent="1">
          <mxGeometry x="525" y="360" width="100" height="40" as="geometry" />
        </mxCell>
        <mxCell id="VQ4ZSW6SBuYJ-sOS3bC8-22" value="Identifier" style="ellipse;whiteSpace=wrap;html=1;align=center;fontStyle=4;" vertex="1" parent="1">
          <mxGeometry x="680" y="450" width="100" height="40" as="geometry" />
        </mxCell>
        <mxCell id="VQ4ZSW6SBuYJ-sOS3bC8-23" value="Title" style="ellipse;whiteSpace=wrap;html=1;align=center;" vertex="1" parent="1">
          <mxGeometry x="680" y="360" width="100" height="40" as="geometry" />
        </mxCell>
        <mxCell id="VQ4ZSW6SBuYJ-sOS3bC8-24" value="Copyright Date" style="ellipse;whiteSpace=wrap;html=1;align=center;" vertex="1" parent="1">
          <mxGeometry x="535" y="430" width="100" height="40" as="geometry" />
        </mxCell>
        <mxCell id="VQ4ZSW6SBuYJ-sOS3bC8-25" value="" style="endArrow=none;html=1;exitX=0.5;exitY=0;exitDx=0;exitDy=0;entryX=0.5;entryY=1;entryDx=0;entryDy=0;" edge="1" parent="1" source="VQ4ZSW6SBuYJ-sOS3bC8-24" target="VQ4ZSW6SBuYJ-sOS3bC8-21">
          <mxGeometry width="50" height="50" relative="1" as="geometry">
            <mxPoint x="212.5" y="250" as="sourcePoint" />
            <mxPoint x="272.5" y="250" as="targetPoint" />
          </mxGeometry>
        </mxCell>
        <mxCell id="VQ4ZSW6SBuYJ-sOS3bC8-26" value="" style="endArrow=none;html=1;entryX=0;entryY=0.5;entryDx=0;entryDy=0;exitX=1;exitY=0.5;exitDx=0;exitDy=0;" edge="1" parent="1" source="VQ4ZSW6SBuYJ-sOS3bC8-21" target="VQ4ZSW6SBuYJ-sOS3bC8-23">
          <mxGeometry width="50" height="50" relative="1" as="geometry">
            <mxPoint x="532.5" y="270" as="sourcePoint" />
            <mxPoint x="582.5" y="220" as="targetPoint" />
          </mxGeometry>
        </mxCell>
        <mxCell id="VQ4ZSW6SBuYJ-sOS3bC8-27" value="" style="endArrow=none;html=1;exitX=1;exitY=1;exitDx=0;exitDy=0;entryX=0;entryY=0.5;entryDx=0;entryDy=0;" edge="1" parent="1" source="VQ4ZSW6SBuYJ-sOS3bC8-21" target="VQ4ZSW6SBuYJ-sOS3bC8-22">
          <mxGeometry width="50" height="50" relative="1" as="geometry">
            <mxPoint x="532.5" y="270" as="sourcePoint" />
            <mxPoint x="582.5" y="220" as="targetPoint" />
          </mxGeometry>
        </mxCell>
        <mxCell id="VQ4ZSW6SBuYJ-sOS3bC8-28" value="Format" style="ellipse;whiteSpace=wrap;html=1;align=center;dashed=1;" vertex="1" parent="1">
          <mxGeometry x="440" y="460" width="100" height="40" as="geometry" />
        </mxCell>
        <mxCell id="VQ4ZSW6SBuYJ-sOS3bC8-29" value="" style="endArrow=none;html=1;exitX=0;exitY=1;exitDx=0;exitDy=0;entryX=0.5;entryY=0;entryDx=0;entryDy=0;" edge="1" parent="1" source="VQ4ZSW6SBuYJ-sOS3bC8-21" target="VQ4ZSW6SBuYJ-sOS3bC8-28">
          <mxGeometry width="50" height="50" relative="1" as="geometry">
            <mxPoint x="532.5" y="270" as="sourcePoint" />
            <mxPoint x="582.5" y="220" as="targetPoint" />
          </mxGeometry>
        </mxCell>
        <mxCell id="VQ4ZSW6SBuYJ-sOS3bC8-30" value="Song" style="whiteSpace=wrap;html=1;align=center;" vertex="1" parent="1">
          <mxGeometry x="100" y="360" width="100" height="40" as="geometry" />
        </mxCell>
        <mxCell id="VQ4ZSW6SBuYJ-sOS3bC8-31" value="Title" style="ellipse;whiteSpace=wrap;html=1;align=center;fontStyle=4;" vertex="1" parent="1">
          <mxGeometry x="-27.5" y="360" width="100" height="40" as="geometry" />
        </mxCell>
        <mxCell id="VQ4ZSW6SBuYJ-sOS3bC8-32" value="Author" style="ellipse;whiteSpace=wrap;html=1;align=center;" vertex="1" parent="1">
          <mxGeometry x="22.5" y="430" width="100" height="40" as="geometry" />
        </mxCell>
        <mxCell id="VQ4ZSW6SBuYJ-sOS3bC8-33" value="" style="endArrow=none;html=1;" edge="1" parent="1">
          <mxGeometry width="50" height="50" relative="1" as="geometry">
            <mxPoint x="72.5" y="380" as="sourcePoint" />
            <mxPoint x="100" y="380" as="targetPoint" />
          </mxGeometry>
        </mxCell>
        <mxCell id="VQ4ZSW6SBuYJ-sOS3bC8-34" value="" style="endArrow=none;html=1;exitX=0.5;exitY=0;exitDx=0;exitDy=0;" edge="1" parent="1" source="VQ4ZSW6SBuYJ-sOS3bC8-32">
          <mxGeometry width="50" height="50" relative="1" as="geometry">
            <mxPoint x="372.5" y="260" as="sourcePoint" />
            <mxPoint x="132.5" y="400" as="targetPoint" />
          </mxGeometry>
        </mxCell>
        <mxCell id="VQ4ZSW6SBuYJ-sOS3bC8-40" value="Play" style="shape=rhombus;perimeter=rhombusPerimeter;whiteSpace=wrap;html=1;align=center;" vertex="1" parent="1">
          <mxGeometry x="305" y="80" width="120" height="60" as="geometry" />
        </mxCell>
        <mxCell id="VQ4ZSW6SBuYJ-sOS3bC8-41" value="" style="endArrow=none;html=1;entryX=1;entryY=0.5;entryDx=0;entryDy=0;exitX=0;exitY=0.5;exitDx=0;exitDy=0;" edge="1" parent="1" source="VQ4ZSW6SBuYJ-sOS3bC8-40" target="VQ4ZSW6SBuYJ-sOS3bC8-1">
          <mxGeometry width="50" height="50" relative="1" as="geometry">
            <mxPoint x="370" y="240" as="sourcePoint" />
            <mxPoint x="420" y="190" as="targetPoint" />
          </mxGeometry>
        </mxCell>
        <mxCell id="VQ4ZSW6SBuYJ-sOS3bC8-43" value="M" style="text;html=1;strokeColor=none;fillColor=none;align=center;verticalAlign=middle;whiteSpace=wrap;rounded=0;" vertex="1" parent="1">
          <mxGeometry x="200" y="90" width="40" height="20" as="geometry" />
        </mxCell>
        <mxCell id="VQ4ZSW6SBuYJ-sOS3bC8-45" value="Appear" style="shape=rhombus;perimeter=rhombusPerimeter;whiteSpace=wrap;html=1;align=center;" vertex="1" parent="1">
          <mxGeometry x="305" y="350" width="120" height="60" as="geometry" />
        </mxCell>
        <mxCell id="VQ4ZSW6SBuYJ-sOS3bC8-46" value="M" style="text;html=1;strokeColor=none;fillColor=none;align=center;verticalAlign=middle;whiteSpace=wrap;rounded=0;" vertex="1" parent="1">
          <mxGeometry x="210" y="360" width="40" height="20" as="geometry" />
        </mxCell>
        <mxCell id="VQ4ZSW6SBuYJ-sOS3bC8-47" value="1" style="text;html=1;strokeColor=none;fillColor=none;align=center;verticalAlign=middle;whiteSpace=wrap;rounded=0;" vertex="1" parent="1">
          <mxGeometry x="470" y="360" width="40" height="20" as="geometry" />
        </mxCell>
        <mxCell id="VQ4ZSW6SBuYJ-sOS3bC8-49" value="" style="endArrow=none;html=1;entryX=1;entryY=0.5;entryDx=0;entryDy=0;exitX=0;exitY=0.5;exitDx=0;exitDy=0;" edge="1" parent="1" source="VQ4ZSW6SBuYJ-sOS3bC8-45" target="VQ4ZSW6SBuYJ-sOS3bC8-30">
          <mxGeometry width="50" height="50" relative="1" as="geometry">
            <mxPoint x="287.5" y="210" as="sourcePoint" />
            <mxPoint x="182.5" y="210" as="targetPoint" />
          </mxGeometry>
        </mxCell>
        <mxCell id="VQ4ZSW6SBuYJ-sOS3bC8-50" value="" style="endArrow=none;html=1;entryX=1;entryY=0.5;entryDx=0;entryDy=0;exitX=0;exitY=0.5;exitDx=0;exitDy=0;" edge="1" parent="1" source="VQ4ZSW6SBuYJ-sOS3bC8-21" target="VQ4ZSW6SBuYJ-sOS3bC8-45">
          <mxGeometry width="50" height="50" relative="1" as="geometry">
            <mxPoint x="492.5" y="379.5" as="sourcePoint" />
            <mxPoint x="407.5" y="379.5" as="targetPoint" />
          </mxGeometry>
        </mxCell>
        <mxCell id="VQ4ZSW6SBuYJ-sOS3bC8-52" value="Performed" style="shape=rhombus;perimeter=rhombusPerimeter;whiteSpace=wrap;html=1;align=center;" vertex="1" parent="1">
          <mxGeometry x="90" y="230" width="120" height="60" as="geometry" />
        </mxCell>
        <mxCell id="VQ4ZSW6SBuYJ-sOS3bC8-53" value="" style="endArrow=none;html=1;entryX=0.5;entryY=1;entryDx=0;entryDy=0;exitX=0.5;exitY=0;exitDx=0;exitDy=0;" edge="1" parent="1" source="VQ4ZSW6SBuYJ-sOS3bC8-52" target="VQ4ZSW6SBuYJ-sOS3bC8-1">
          <mxGeometry width="50" height="50" relative="1" as="geometry">
            <mxPoint x="380" y="330" as="sourcePoint" />
            <mxPoint x="430" y="280" as="targetPoint" />
          </mxGeometry>
        </mxCell>
        <mxCell id="VQ4ZSW6SBuYJ-sOS3bC8-56" value="M" style="text;html=1;strokeColor=none;fillColor=none;align=center;verticalAlign=middle;whiteSpace=wrap;rounded=0;" vertex="1" parent="1">
          <mxGeometry x="120" y="140" width="40" height="20" as="geometry" />
        </mxCell>
        <mxCell id="VQ4ZSW6SBuYJ-sOS3bC8-57" value="Produce" style="shape=rhombus;perimeter=rhombusPerimeter;whiteSpace=wrap;html=1;align=center;rotation=-45;" vertex="1" parent="1">
          <mxGeometry x="300" y="210" width="120" height="60" as="geometry" />
        </mxCell>
        <mxCell id="VQ4ZSW6SBuYJ-sOS3bC8-58" value="" style="endArrow=none;html=1;entryX=1;entryY=1;entryDx=0;entryDy=0;exitX=0.5;exitY=0;exitDx=0;exitDy=0;" edge="1" parent="1" source="VQ4ZSW6SBuYJ-sOS3bC8-57" target="VQ4ZSW6SBuYJ-sOS3bC8-1">
          <mxGeometry width="50" height="50" relative="1" as="geometry">
            <mxPoint x="310" y="200" as="sourcePoint" />
            <mxPoint x="430" y="260" as="targetPoint" />
          </mxGeometry>
        </mxCell>
        <mxCell id="VQ4ZSW6SBuYJ-sOS3bC8-59" value="" style="endArrow=none;html=1;exitX=0;exitY=0;exitDx=0;exitDy=0;entryX=0.5;entryY=1;entryDx=0;entryDy=0;" edge="1" parent="1" source="VQ4ZSW6SBuYJ-sOS3bC8-21" target="VQ4ZSW6SBuYJ-sOS3bC8-57">
          <mxGeometry width="50" height="50" relative="1" as="geometry">
            <mxPoint x="380" y="330" as="sourcePoint" />
            <mxPoint x="410" y="280" as="targetPoint" />
          </mxGeometry>
        </mxCell>
        <mxCell id="VQ4ZSW6SBuYJ-sOS3bC8-60" value="1" style="text;html=1;strokeColor=none;fillColor=none;align=center;verticalAlign=middle;whiteSpace=wrap;rounded=0;" vertex="1" parent="1">
          <mxGeometry x="240" y="130" width="40" height="20" as="geometry" />
        </mxCell>
        <mxCell id="VQ4ZSW6SBuYJ-sOS3bC8-61" value="M" style="text;html=1;strokeColor=none;fillColor=none;align=center;verticalAlign=middle;whiteSpace=wrap;rounded=0;" vertex="1" parent="1">
          <mxGeometry x="500" y="320" width="40" height="20" as="geometry" />
        </mxCell>
        <mxCell id="VQ4ZSW6SBuYJ-sOS3bC8-73" value="" style="shape=link;html=1;rounded=0;exitX=1;exitY=0.5;exitDx=0;exitDy=0;entryX=0;entryY=0.5;entryDx=0;entryDy=0;" edge="1" parent="1" source="VQ4ZSW6SBuYJ-sOS3bC8-40" target="VQ4ZSW6SBuYJ-sOS3bC8-12">
          <mxGeometry relative="1" as="geometry">
            <mxPoint x="450" y="179.5" as="sourcePoint" />
            <mxPoint x="610" y="179.5" as="targetPoint" />
          </mxGeometry>
        </mxCell>
        <mxCell id="VQ4ZSW6SBuYJ-sOS3bC8-74" value="N" style="resizable=0;html=1;align=right;verticalAlign=bottom;" connectable="0" vertex="1" parent="VQ4ZSW6SBuYJ-sOS3bC8-73">
          <mxGeometry x="1" relative="1" as="geometry">
            <mxPoint x="-22" as="offset" />
          </mxGeometry>
        </mxCell>
        <mxCell id="VQ4ZSW6SBuYJ-sOS3bC8-76" value="" style="endArrow=none;html=1;exitX=1;exitY=0.75;exitDx=0;exitDy=0;entryX=0.138;entryY=0.657;entryDx=0;entryDy=0;entryPerimeter=0;" edge="1" parent="1" source="VQ4ZSW6SBuYJ-sOS3bC8-30" target="VQ4ZSW6SBuYJ-sOS3bC8-45">
          <mxGeometry width="50" height="50" relative="1" as="geometry">
            <mxPoint x="300" y="270" as="sourcePoint" />
            <mxPoint x="310" y="420" as="targetPoint" />
            <Array as="points">
              <mxPoint x="280" y="390" />
            </Array>
          </mxGeometry>
        </mxCell>
        <mxCell id="VQ4ZSW6SBuYJ-sOS3bC8-78" value="" style="shape=link;html=1;rounded=0;exitX=0.5;exitY=1;exitDx=0;exitDy=0;entryX=0.5;entryY=0;entryDx=0;entryDy=0;" edge="1" parent="1" source="VQ4ZSW6SBuYJ-sOS3bC8-52" target="VQ4ZSW6SBuYJ-sOS3bC8-30">
          <mxGeometry relative="1" as="geometry">
            <mxPoint x="250" y="240" as="sourcePoint" />
            <mxPoint x="410" y="240" as="targetPoint" />
          </mxGeometry>
        </mxCell>
        <mxCell id="VQ4ZSW6SBuYJ-sOS3bC8-79" value="N" style="resizable=0;html=1;align=right;verticalAlign=bottom;" connectable="0" vertex="1" parent="VQ4ZSW6SBuYJ-sOS3bC8-78">
          <mxGeometry x="1" relative="1" as="geometry">
            <mxPoint x="-10" as="offset" />
          </mxGeometry>
        </mxCell>
      </root>
    </mxGraphModel>
  </diagram>
</mxfile>
